<mxfile host="app.diagrams.net" modified="2020-03-26T17:53:03.349Z" agent="Mozilla/5.0 (Macintosh; Intel Mac OS X 10_15_3) AppleWebKit/537.36 (KHTML, like Gecko) Chrome/80.0.3987.149 Safari/537.36" etag="xbpgtZJu-o1gKserCUWP" version="12.8.8" type="github">
  <diagram id="7X1BECR9ZzV7m8dXaOoN" name="Page-1">
    <mxGraphModel dx="944" dy="555" grid="1" gridSize="10" guides="1" tooltips="1" connect="1" arrows="1" fold="1" page="1" pageScale="1" pageWidth="827" pageHeight="1169" math="0" shadow="0">
      <root>
        <mxCell id="0" />
        <mxCell id="1" parent="0" />
        <mxCell id="9ZFUQ1CrxA7jaHmztUz1-2" value="" style="endArrow=none;html=1;fillColor=#d5e8d4;strokeColor=#82b366;" parent="1" source="9ZFUQ1CrxA7jaHmztUz1-41" edge="1">
          <mxGeometry width="50" height="50" relative="1" as="geometry">
            <mxPoint x="130" y="120" as="sourcePoint" />
            <mxPoint x="740" y="120" as="targetPoint" />
          </mxGeometry>
        </mxCell>
        <mxCell id="9ZFUQ1CrxA7jaHmztUz1-3" value="" style="endArrow=none;html=1;strokeColor=#007FFF;" parent="1" source="9ZFUQ1CrxA7jaHmztUz1-34" edge="1">
          <mxGeometry width="50" height="50" relative="1" as="geometry">
            <mxPoint x="130" y="160" as="sourcePoint" />
            <mxPoint x="740" y="160" as="targetPoint" />
          </mxGeometry>
        </mxCell>
        <mxCell id="9ZFUQ1CrxA7jaHmztUz1-5" value="" style="endArrow=none;html=1;strokeColor=#000099;" parent="1" source="9ZFUQ1CrxA7jaHmztUz1-18" edge="1">
          <mxGeometry width="50" height="50" relative="1" as="geometry">
            <mxPoint x="130" y="200" as="sourcePoint" />
            <mxPoint x="740" y="200" as="targetPoint" />
          </mxGeometry>
        </mxCell>
        <mxCell id="9ZFUQ1CrxA7jaHmztUz1-6" value="" style="rounded=0;whiteSpace=wrap;html=1;fillColor=#f5f5f5;strokeColor=#666666;fontColor=#333333;gradientColor=#00994D;" parent="1" vertex="1">
          <mxGeometry x="20" y="101" width="100" height="30" as="geometry" />
        </mxCell>
        <mxCell id="9ZFUQ1CrxA7jaHmztUz1-7" value="" style="rounded=0;whiteSpace=wrap;html=1;gradientColor=#0066CC;" parent="1" vertex="1">
          <mxGeometry x="20" y="140" width="100" height="30" as="geometry" />
        </mxCell>
        <mxCell id="9ZFUQ1CrxA7jaHmztUz1-8" value="" style="rounded=0;whiteSpace=wrap;html=1;gradientColor=#000066;" parent="1" vertex="1">
          <mxGeometry x="20" y="180" width="100" height="30" as="geometry" />
        </mxCell>
        <mxCell id="9ZFUQ1CrxA7jaHmztUz1-9" value="release" style="text;html=1;strokeColor=none;fillColor=none;align=center;verticalAlign=middle;whiteSpace=wrap;rounded=0;" parent="1" vertex="1">
          <mxGeometry x="50" y="105" width="40" height="20" as="geometry" />
        </mxCell>
        <mxCell id="9ZFUQ1CrxA7jaHmztUz1-10" value="develop" style="text;html=1;strokeColor=none;fillColor=none;align=center;verticalAlign=middle;whiteSpace=wrap;rounded=0;" parent="1" vertex="1">
          <mxGeometry x="50" y="145" width="40" height="20" as="geometry" />
        </mxCell>
        <mxCell id="9ZFUQ1CrxA7jaHmztUz1-11" value="feature/x" style="text;html=1;strokeColor=none;fillColor=none;align=center;verticalAlign=middle;whiteSpace=wrap;rounded=0;" parent="1" vertex="1">
          <mxGeometry x="50" y="185" width="40" height="20" as="geometry" />
        </mxCell>
        <mxCell id="9ZFUQ1CrxA7jaHmztUz1-12" value="" style="endArrow=none;html=1;strokeColor=#000066;" parent="1" source="9ZFUQ1CrxA7jaHmztUz1-20" edge="1">
          <mxGeometry width="50" height="50" relative="1" as="geometry">
            <mxPoint x="131" y="238" as="sourcePoint" />
            <mxPoint x="741" y="238" as="targetPoint" />
            <Array as="points">
              <mxPoint x="340" y="238" />
            </Array>
          </mxGeometry>
        </mxCell>
        <mxCell id="9ZFUQ1CrxA7jaHmztUz1-13" value="" style="rounded=0;whiteSpace=wrap;html=1;gradientColor=#003366;" parent="1" vertex="1">
          <mxGeometry x="21" y="221" width="100" height="30" as="geometry" />
        </mxCell>
        <mxCell id="9ZFUQ1CrxA7jaHmztUz1-14" value="feature/y" style="text;html=1;strokeColor=none;fillColor=none;align=center;verticalAlign=middle;whiteSpace=wrap;rounded=0;" parent="1" vertex="1">
          <mxGeometry x="51" y="226" width="40" height="20" as="geometry" />
        </mxCell>
        <mxCell id="9ZFUQ1CrxA7jaHmztUz1-16" value="" style="ellipse;whiteSpace=wrap;html=1;aspect=fixed;gradientColor=#3399FF;" parent="1" vertex="1">
          <mxGeometry x="170" y="152.5" width="17.5" height="17.5" as="geometry" />
        </mxCell>
        <mxCell id="9ZFUQ1CrxA7jaHmztUz1-17" value="" style="endArrow=none;html=1;strokeColor=#007FFF;" parent="1" target="9ZFUQ1CrxA7jaHmztUz1-16" edge="1">
          <mxGeometry width="50" height="50" relative="1" as="geometry">
            <mxPoint x="130" y="160" as="sourcePoint" />
            <mxPoint x="740" y="160" as="targetPoint" />
          </mxGeometry>
        </mxCell>
        <mxCell id="9ZFUQ1CrxA7jaHmztUz1-18" value="" style="ellipse;whiteSpace=wrap;html=1;aspect=fixed;gradientColor=#0000CC;" parent="1" vertex="1">
          <mxGeometry x="207" y="192" width="17.5" height="17.5" as="geometry" />
        </mxCell>
        <mxCell id="9ZFUQ1CrxA7jaHmztUz1-19" value="" style="endArrow=none;html=1;strokeColor=#000099;" parent="1" target="9ZFUQ1CrxA7jaHmztUz1-18" edge="1">
          <mxGeometry width="50" height="50" relative="1" as="geometry">
            <mxPoint x="130" y="200" as="sourcePoint" />
            <mxPoint x="740" y="200" as="targetPoint" />
          </mxGeometry>
        </mxCell>
        <mxCell id="9ZFUQ1CrxA7jaHmztUz1-20" value="" style="ellipse;whiteSpace=wrap;html=1;aspect=fixed;gradientColor=#003366;" parent="1" vertex="1">
          <mxGeometry x="280" y="228" width="17.5" height="17.5" as="geometry" />
        </mxCell>
        <mxCell id="9ZFUQ1CrxA7jaHmztUz1-21" value="" style="endArrow=none;html=1;strokeColor=#000066;" parent="1" target="9ZFUQ1CrxA7jaHmztUz1-20" edge="1">
          <mxGeometry width="50" height="50" relative="1" as="geometry">
            <mxPoint x="131" y="238" as="sourcePoint" />
            <mxPoint x="741" y="238" as="targetPoint" />
          </mxGeometry>
        </mxCell>
        <mxCell id="9ZFUQ1CrxA7jaHmztUz1-22" value="" style="ellipse;whiteSpace=wrap;html=1;aspect=fixed;gradientColor=#007FFF;" parent="1" vertex="1">
          <mxGeometry x="242.5" y="152.5" width="17.5" height="17.5" as="geometry" />
        </mxCell>
        <mxCell id="9ZFUQ1CrxA7jaHmztUz1-23" value="" style="endArrow=none;html=1;strokeColor=#007FFF;" parent="1" source="9ZFUQ1CrxA7jaHmztUz1-16" target="9ZFUQ1CrxA7jaHmztUz1-22" edge="1">
          <mxGeometry width="50" height="50" relative="1" as="geometry">
            <mxPoint x="197.499985589669" y="161.23411980836715" as="sourcePoint" />
            <mxPoint x="740" y="160" as="targetPoint" />
          </mxGeometry>
        </mxCell>
        <mxCell id="9ZFUQ1CrxA7jaHmztUz1-28" value="" style="edgeStyle=elbowEdgeStyle;elbow=horizontal;endArrow=classic;html=1;strokeColor=#000066;exitX=0.5;exitY=1;exitDx=0;exitDy=0;" parent="1" source="9ZFUQ1CrxA7jaHmztUz1-16" edge="1">
          <mxGeometry width="50" height="50" relative="1" as="geometry">
            <mxPoint x="187.5" y="160" as="sourcePoint" />
            <mxPoint x="208" y="200" as="targetPoint" />
            <Array as="points">
              <mxPoint x="180" y="200" />
            </Array>
          </mxGeometry>
        </mxCell>
        <mxCell id="9ZFUQ1CrxA7jaHmztUz1-29" value="" style="ellipse;whiteSpace=wrap;html=1;aspect=fixed;gradientColor=#0000CC;" parent="1" vertex="1">
          <mxGeometry x="283" y="192" width="17.5" height="17.5" as="geometry" />
        </mxCell>
        <mxCell id="9ZFUQ1CrxA7jaHmztUz1-32" value="" style="edgeStyle=elbowEdgeStyle;elbow=horizontal;endArrow=classic;html=1;strokeColor=#000066;entryX=0;entryY=0;entryDx=0;entryDy=0;exitX=0.5;exitY=1;exitDx=0;exitDy=0;" parent="1" source="9ZFUQ1CrxA7jaHmztUz1-22" edge="1">
          <mxGeometry width="50" height="50" relative="1" as="geometry">
            <mxPoint x="251.25" y="177" as="sourcePoint" />
            <mxPoint x="282.5628156646178" y="237.5628156646178" as="targetPoint" />
            <Array as="points">
              <mxPoint x="250" y="244" />
            </Array>
          </mxGeometry>
        </mxCell>
        <mxCell id="9ZFUQ1CrxA7jaHmztUz1-40" style="edgeStyle=orthogonalEdgeStyle;rounded=0;orthogonalLoop=1;jettySize=auto;html=1;entryX=0.5;entryY=1;entryDx=0;entryDy=0;strokeColor=#000066;" parent="1" source="9ZFUQ1CrxA7jaHmztUz1-33" target="9ZFUQ1CrxA7jaHmztUz1-38" edge="1">
          <mxGeometry relative="1" as="geometry" />
        </mxCell>
        <mxCell id="9ZFUQ1CrxA7jaHmztUz1-33" value="" style="ellipse;whiteSpace=wrap;html=1;aspect=fixed;gradientColor=#003366;" parent="1" vertex="1">
          <mxGeometry x="343" y="229" width="17.5" height="17.5" as="geometry" />
        </mxCell>
        <mxCell id="9ZFUQ1CrxA7jaHmztUz1-34" value="" style="ellipse;whiteSpace=wrap;html=1;aspect=fixed;gradientColor=#3399FF;" parent="1" vertex="1">
          <mxGeometry x="340" y="152.5" width="17.5" height="17.5" as="geometry" />
        </mxCell>
        <mxCell id="9ZFUQ1CrxA7jaHmztUz1-35" value="" style="endArrow=none;html=1;strokeColor=#007FFF;" parent="1" source="9ZFUQ1CrxA7jaHmztUz1-22" target="9ZFUQ1CrxA7jaHmztUz1-34" edge="1">
          <mxGeometry width="50" height="50" relative="1" as="geometry">
            <mxPoint x="259.9999816288248" y="161.23206970977697" as="sourcePoint" />
            <mxPoint x="740" y="160" as="targetPoint" />
          </mxGeometry>
        </mxCell>
        <mxCell id="9ZFUQ1CrxA7jaHmztUz1-37" value="" style="edgeStyle=elbowEdgeStyle;elbow=vertical;endArrow=classic;html=1;strokeColor=#000066;" parent="1" edge="1">
          <mxGeometry width="50" height="50" relative="1" as="geometry">
            <mxPoint x="301" y="201" as="sourcePoint" />
            <mxPoint x="351" y="168" as="targetPoint" />
            <Array as="points">
              <mxPoint x="351" y="201" />
            </Array>
          </mxGeometry>
        </mxCell>
        <mxCell id="9ZFUQ1CrxA7jaHmztUz1-38" value="" style="ellipse;whiteSpace=wrap;html=1;aspect=fixed;gradientColor=#3399FF;" parent="1" vertex="1">
          <mxGeometry x="402" y="154" width="17.5" height="17.5" as="geometry" />
        </mxCell>
        <mxCell id="9ZFUQ1CrxA7jaHmztUz1-42" value="" style="edgeStyle=elbowEdgeStyle;elbow=vertical;endArrow=classic;html=1;strokeColor=#000066;entryX=0.5;entryY=1;entryDx=0;entryDy=0;" parent="1" edge="1" target="9ZFUQ1CrxA7jaHmztUz1-41">
          <mxGeometry width="50" height="50" relative="1" as="geometry">
            <mxPoint x="420.5" y="160" as="sourcePoint" />
            <mxPoint x="470.5" y="127" as="targetPoint" />
            <Array as="points">
              <mxPoint x="470.5" y="160" />
            </Array>
          </mxGeometry>
        </mxCell>
        <mxCell id="9ZFUQ1CrxA7jaHmztUz1-41" value="" style="ellipse;whiteSpace=wrap;html=1;aspect=fixed;gradientColor=#00CC00;" parent="1" vertex="1">
          <mxGeometry x="430" y="112.5" width="17.5" height="17.5" as="geometry" />
        </mxCell>
        <mxCell id="9ZFUQ1CrxA7jaHmztUz1-43" value="" style="endArrow=none;html=1;fillColor=#d5e8d4;strokeColor=#82b366;" parent="1" target="9ZFUQ1CrxA7jaHmztUz1-41" edge="1">
          <mxGeometry width="50" height="50" relative="1" as="geometry">
            <mxPoint x="130" y="120" as="sourcePoint" />
            <mxPoint x="740" y="120" as="targetPoint" />
          </mxGeometry>
        </mxCell>
        <mxCell id="M0Mpdi-mKDBLYwmACuWR-1" value="" style="rounded=0;whiteSpace=wrap;html=1;fillColor=#f5f5f5;strokeColor=#666666;fontColor=#333333;gradientColor=#A8A8A8;" parent="1" vertex="1">
          <mxGeometry x="21" y="61" width="100" height="30" as="geometry" />
        </mxCell>
        <mxCell id="M0Mpdi-mKDBLYwmACuWR-2" value="" style="endArrow=none;html=1;fillColor=#f5f5f5;strokeColor=#666666;" parent="1" edge="1">
          <mxGeometry width="50" height="50" relative="1" as="geometry">
            <mxPoint x="131" y="80" as="sourcePoint" />
            <mxPoint x="740" y="81" as="targetPoint" />
          </mxGeometry>
        </mxCell>
        <mxCell id="M0Mpdi-mKDBLYwmACuWR-3" value="" style="ellipse;whiteSpace=wrap;html=1;aspect=fixed;gradientColor=#C7C7C7;" parent="1" vertex="1">
          <mxGeometry x="464" y="70.5" width="17.5" height="17.5" as="geometry" />
        </mxCell>
        <mxCell id="M0Mpdi-mKDBLYwmACuWR-4" value="" style="edgeStyle=elbowEdgeStyle;elbow=vertical;endArrow=classic;html=1;strokeColor=#000066;entryX=0.5;entryY=1;entryDx=0;entryDy=0;" parent="1" edge="1">
          <mxGeometry width="50" height="50" relative="1" as="geometry">
            <mxPoint x="449.5" y="121" as="sourcePoint" />
            <mxPoint x="473.75" y="88" as="targetPoint" />
            <Array as="points">
              <mxPoint x="499.5" y="121" />
            </Array>
          </mxGeometry>
        </mxCell>
        <mxCell id="M0Mpdi-mKDBLYwmACuWR-5" value="1.0.0" style="text;html=1;strokeColor=none;fillColor=none;align=center;verticalAlign=middle;whiteSpace=wrap;rounded=0;" parent="1" vertex="1">
          <mxGeometry x="454.75" y="50" width="40" height="20" as="geometry" />
        </mxCell>
        <mxCell id="M0Mpdi-mKDBLYwmACuWR-6" value="master" style="text;html=1;strokeColor=none;fillColor=none;align=center;verticalAlign=middle;whiteSpace=wrap;rounded=0;" parent="1" vertex="1">
          <mxGeometry x="50" y="66" width="40" height="20" as="geometry" />
        </mxCell>
        <mxCell id="CI2xhrSxRg0VEH57cU-8-1" value="1.0.0" style="text;html=1;strokeColor=none;fillColor=none;align=center;verticalAlign=middle;whiteSpace=wrap;rounded=0;" vertex="1" parent="1">
          <mxGeometry x="419" y="92" width="40" height="20" as="geometry" />
        </mxCell>
        <mxCell id="CI2xhrSxRg0VEH57cU-8-2" value="feature req" style="whiteSpace=wrap;html=1;shape=mxgraph.basic.roundRectCallout;dx=30;dy=15;size=5;boundedLbl=1;" vertex="1" parent="1">
          <mxGeometry x="170" y="124.5" width="70" height="28" as="geometry" />
        </mxCell>
        <mxCell id="CI2xhrSxRg0VEH57cU-8-3" value="feature req" style="whiteSpace=wrap;html=1;shape=mxgraph.basic.roundRectCallout;dx=30;dy=15;size=5;boundedLbl=1;" vertex="1" parent="1">
          <mxGeometry x="250" y="125.5" width="70" height="28" as="geometry" />
        </mxCell>
        <mxCell id="CI2xhrSxRg0VEH57cU-8-4" value="" style="ellipse;whiteSpace=wrap;html=1;aspect=fixed;gradientColor=#00CC00;" vertex="1" parent="1">
          <mxGeometry x="506" y="112.5" width="17.5" height="17.5" as="geometry" />
        </mxCell>
        <mxCell id="CI2xhrSxRg0VEH57cU-8-5" value="1.1.0" style="text;html=1;strokeColor=none;fillColor=none;align=center;verticalAlign=middle;whiteSpace=wrap;rounded=0;" vertex="1" parent="1">
          <mxGeometry x="498" y="94" width="40" height="20" as="geometry" />
        </mxCell>
        <mxCell id="CI2xhrSxRg0VEH57cU-8-6" value="" style="ellipse;whiteSpace=wrap;html=1;aspect=fixed;gradientColor=#C7C7C7;" vertex="1" parent="1">
          <mxGeometry x="543" y="70.5" width="17.5" height="17.5" as="geometry" />
        </mxCell>
        <mxCell id="CI2xhrSxRg0VEH57cU-8-7" value="" style="edgeStyle=elbowEdgeStyle;elbow=vertical;endArrow=classic;html=1;strokeColor=#000066;entryX=0.5;entryY=1;entryDx=0;entryDy=0;" edge="1" parent="1">
          <mxGeometry width="50" height="50" relative="1" as="geometry">
            <mxPoint x="527.5" y="121" as="sourcePoint" />
            <mxPoint x="551.75" y="88" as="targetPoint" />
            <Array as="points">
              <mxPoint x="577.5" y="121" />
            </Array>
          </mxGeometry>
        </mxCell>
        <mxCell id="CI2xhrSxRg0VEH57cU-8-8" value="1.1.0" style="text;html=1;strokeColor=none;fillColor=none;align=center;verticalAlign=middle;whiteSpace=wrap;rounded=0;" vertex="1" parent="1">
          <mxGeometry x="540.75" y="47" width="40" height="20" as="geometry" />
        </mxCell>
        <mxCell id="CI2xhrSxRg0VEH57cU-8-9" value="" style="ellipse;whiteSpace=wrap;html=1;aspect=fixed;gradientColor=#3399FF;" vertex="1" parent="1">
          <mxGeometry x="475" y="152" width="17.5" height="17.5" as="geometry" />
        </mxCell>
        <mxCell id="CI2xhrSxRg0VEH57cU-8-12" value="" style="edgeStyle=elbowEdgeStyle;elbow=vertical;endArrow=classic;html=1;strokeColor=#000066;entryX=0.5;entryY=1;entryDx=0;entryDy=0;" edge="1" parent="1">
          <mxGeometry width="50" height="50" relative="1" as="geometry">
            <mxPoint x="495.5" y="160" as="sourcePoint" />
            <mxPoint x="513.75" y="130" as="targetPoint" />
            <Array as="points">
              <mxPoint x="545.5" y="160" />
            </Array>
          </mxGeometry>
        </mxCell>
      </root>
    </mxGraphModel>
  </diagram>
</mxfile>
